<mxfile host="65bd71144e">
    <diagram id="e9o5MpUv1LQBWrytiZt4" name="第 1 页">
        <mxGraphModel dx="1572" dy="839" grid="1" gridSize="10" guides="1" tooltips="1" connect="1" arrows="1" fold="1" page="1" pageScale="1" pageWidth="1654" pageHeight="2336" math="0" shadow="0">
            <root>
                <mxCell id="0"/>
                <mxCell id="1" parent="0"/>
                <mxCell id="2" value="ax&lt;br&gt;累加器&lt;br&gt;Accumulator" style="whiteSpace=wrap;html=1;" parent="1" vertex="1">
                    <mxGeometry x="170" y="180" width="120" height="60" as="geometry"/>
                </mxCell>
                <mxCell id="3" value="bx&lt;br&gt;基地址寄存器&lt;br&gt;Base Register" style="whiteSpace=wrap;html=1;" parent="1" vertex="1">
                    <mxGeometry x="170" y="300" width="120" height="60" as="geometry"/>
                </mxCell>
                <mxCell id="4" value="cx&lt;br&gt;计数寄存器&lt;br&gt;Count Register" style="whiteSpace=wrap;html=1;" parent="1" vertex="1">
                    <mxGeometry x="170" y="420" width="120" height="60" as="geometry"/>
                </mxCell>
                <mxCell id="5" value="cs &lt;br&gt;代码段寄存器&lt;br&gt;Code Segment" style="whiteSpace=wrap;html=1;" parent="1" vertex="1">
                    <mxGeometry x="707" y="180" width="120" height="60" as="geometry"/>
                </mxCell>
                <mxCell id="6" value="sp&lt;br&gt;堆栈指针寄存器&lt;br&gt;Stack Pointer" style="whiteSpace=wrap;html=1;" parent="1" vertex="1">
                    <mxGeometry x="430" y="180" width="120" height="60" as="geometry"/>
                </mxCell>
                <mxCell id="7" value="ds&lt;br&gt;数据段寄存器&lt;br&gt;Data Segment" style="whiteSpace=wrap;html=1;" parent="1" vertex="1">
                    <mxGeometry x="707" y="310" width="120" height="60" as="geometry"/>
                </mxCell>
                <mxCell id="8" value="bp&lt;br&gt;基址指针寄存器&lt;br&gt;Base Pointer" style="whiteSpace=wrap;html=1;" parent="1" vertex="1">
                    <mxGeometry x="430" y="300" width="120" height="60" as="geometry"/>
                </mxCell>
                <mxCell id="9" value="ss&lt;br&gt;堆栈段寄存器&lt;br&gt;Stack Segment" style="whiteSpace=wrap;html=1;" parent="1" vertex="1">
                    <mxGeometry x="707" y="430" width="120" height="60" as="geometry"/>
                </mxCell>
                <mxCell id="10" value="si&lt;br&gt;源变址寄存器&lt;br&gt;Source Index" style="whiteSpace=wrap;html=1;" parent="1" vertex="1">
                    <mxGeometry x="430" y="420" width="120" height="60" as="geometry"/>
                </mxCell>
                <mxCell id="11" value="dx&lt;br&gt;数据寄存器&lt;br&gt;Data Register" style="whiteSpace=wrap;html=1;" parent="1" vertex="1">
                    <mxGeometry x="170" y="540" width="120" height="60" as="geometry"/>
                </mxCell>
                <mxCell id="12" value="es&lt;br&gt;附加段寄存器&lt;br&gt;Extra Segment" style="whiteSpace=wrap;html=1;" parent="1" vertex="1">
                    <mxGeometry x="707" y="540" width="120" height="60" as="geometry"/>
                </mxCell>
                <mxCell id="13" value="di&lt;br&gt;目的变址寄存器&lt;br&gt;Destination Index" style="whiteSpace=wrap;html=1;" parent="1" vertex="1">
                    <mxGeometry x="430" y="540" width="120" height="60" as="geometry"/>
                </mxCell>
                <mxCell id="14" value="&lt;b&gt;&lt;font style=&quot;font-size: 16px&quot;&gt;16位CPU寄存器&lt;/font&gt;&lt;/b&gt;" style="text;html=1;resizable=0;autosize=1;align=center;verticalAlign=middle;points=[];fillColor=none;strokeColor=none;rounded=0;" parent="1" vertex="1">
                    <mxGeometry x="425" y="130" width="130" height="20" as="geometry"/>
                </mxCell>
                <mxCell id="18" value="" style="shape=curlyBracket;whiteSpace=wrap;html=1;rounded=1;fontSize=16;size=0;" parent="1" vertex="1">
                    <mxGeometry x="150" y="210" width="20" height="360" as="geometry"/>
                </mxCell>
                <mxCell id="19" value="数据寄存器" style="text;html=1;align=center;verticalAlign=middle;resizable=0;points=[];autosize=1;strokeColor=none;fillColor=none;fontSize=16;" parent="1" vertex="1">
                    <mxGeometry x="50" y="380" width="100" height="20" as="geometry"/>
                </mxCell>
                <mxCell id="20" value="" style="shape=curlyBracket;whiteSpace=wrap;html=1;rounded=1;fontSize=16;size=0;" parent="1" vertex="1">
                    <mxGeometry x="410" y="210" width="20" height="120" as="geometry"/>
                </mxCell>
                <mxCell id="21" value="指针寄存器" style="text;html=1;align=center;verticalAlign=middle;resizable=0;points=[];autosize=1;strokeColor=none;fillColor=none;fontSize=16;" parent="1" vertex="1">
                    <mxGeometry x="310" y="260" width="100" height="20" as="geometry"/>
                </mxCell>
                <mxCell id="22" value="" style="shape=curlyBracket;whiteSpace=wrap;html=1;rounded=1;fontSize=16;size=0;" parent="1" vertex="1">
                    <mxGeometry x="410" y="450" width="20" height="120" as="geometry"/>
                </mxCell>
                <mxCell id="23" value="变址寄存器" style="text;html=1;align=center;verticalAlign=middle;resizable=0;points=[];autosize=1;strokeColor=none;fillColor=none;fontSize=16;" parent="1" vertex="1">
                    <mxGeometry x="310" y="500" width="100" height="20" as="geometry"/>
                </mxCell>
                <mxCell id="29" value="" style="shape=curlyBracket;whiteSpace=wrap;html=1;rounded=1;fontSize=16;size=0;" parent="1" vertex="1">
                    <mxGeometry x="667" y="210" width="40" height="360" as="geometry"/>
                </mxCell>
                <mxCell id="30" value="段寄存器" style="text;html=1;align=center;verticalAlign=middle;resizable=0;points=[];autosize=1;strokeColor=none;fillColor=none;fontSize=16;" parent="1" vertex="1">
                    <mxGeometry x="587" y="380" width="80" height="20" as="geometry"/>
                </mxCell>
                <mxCell id="31" value="IP&lt;br&gt;指令指针寄存器&lt;br&gt;Instruction Pointer" style="whiteSpace=wrap;html=1;" parent="1" vertex="1">
                    <mxGeometry x="170" y="660" width="120" height="60" as="geometry"/>
                </mxCell>
                <mxCell id="32" value="&lt;span&gt;EFLAG&lt;/span&gt;&lt;br&gt;&lt;span&gt;标志寄存器&lt;br&gt;Flag Register&lt;br&gt;&lt;/span&gt;" style="whiteSpace=wrap;html=1;" parent="1" vertex="1">
                    <mxGeometry x="170" y="780" width="120" height="60" as="geometry"/>
                </mxCell>
                <mxCell id="33" value="" style="shape=curlyBracket;whiteSpace=wrap;html=1;rounded=1;fontSize=16;size=0;" parent="1" vertex="1">
                    <mxGeometry x="150" y="690" width="20" height="120" as="geometry"/>
                </mxCell>
                <mxCell id="34" value="控制寄存器" style="text;html=1;align=center;verticalAlign=middle;resizable=0;points=[];autosize=1;strokeColor=none;fillColor=none;fontSize=16;" parent="1" vertex="1">
                    <mxGeometry x="50" y="740" width="100" height="20" as="geometry"/>
                </mxCell>
                <mxCell id="38" style="edgeStyle=none;html=1;exitX=0.5;exitY=0;exitDx=0;exitDy=0;entryX=0;entryY=0.5;entryDx=0;entryDy=0;" edge="1" parent="1" source="35" target="37">
                    <mxGeometry relative="1" as="geometry"/>
                </mxCell>
                <mxCell id="35" value="300b" style="whiteSpace=wrap;html=1;" vertex="1" parent="1">
                    <mxGeometry x="220" y="1390" width="120" height="60" as="geometry"/>
                </mxCell>
                <mxCell id="36" value="腾讯云" style="whiteSpace=wrap;html=1;" vertex="1" parent="1">
                    <mxGeometry x="555" y="1390" width="120" height="60" as="geometry"/>
                </mxCell>
                <mxCell id="37" value="sy" style="whiteSpace=wrap;html=1;" vertex="1" parent="1">
                    <mxGeometry x="390" y="1220" width="120" height="60" as="geometry"/>
                </mxCell>
                <mxCell id="45" style="edgeStyle=none;html=1;exitX=0;exitY=0.5;exitDx=0;exitDy=0;" edge="1" parent="1" source="40" target="37">
                    <mxGeometry relative="1" as="geometry"/>
                </mxCell>
                <mxCell id="46" style="edgeStyle=none;html=1;exitX=0.5;exitY=1;exitDx=0;exitDy=0;entryX=1;entryY=0.5;entryDx=0;entryDy=0;" edge="1" parent="1" source="40" target="36">
                    <mxGeometry relative="1" as="geometry"/>
                </mxCell>
                <mxCell id="40" value="用户" style="ellipse;whiteSpace=wrap;html=1;" vertex="1" parent="1">
                    <mxGeometry x="850" y="1210" width="80" height="80" as="geometry"/>
                </mxCell>
                <mxCell id="48" style="edgeStyle=none;html=1;exitX=1;exitY=0.5;exitDx=0;exitDy=0;entryX=0.5;entryY=0;entryDx=0;entryDy=0;" edge="1" parent="1" source="47" target="35">
                    <mxGeometry relative="1" as="geometry"/>
                </mxCell>
                <mxCell id="47" value="" style="whiteSpace=wrap;html=1;" vertex="1" parent="1">
                    <mxGeometry x="40" y="1250" width="120" height="60" as="geometry"/>
                </mxCell>
                <mxCell id="49" value="" style="whiteSpace=wrap;html=1;" vertex="1" parent="1">
                    <mxGeometry x="80" y="1520" width="120" height="60" as="geometry"/>
                </mxCell>
            </root>
        </mxGraphModel>
    </diagram>
</mxfile>